<svg xmlns="http://www.w3.org/2000/svg" viewBox="0 0 1440 320" preserveAspectRatio="none">
  <path fill="#0099ff" fill-opacity="0.8" d="M0,192L48,176C96,160,192,128,288,133.3C384,139,480,181,576,186.7C672,192,768,160,864,138.7C960,117,1056,107,1152,112C1248,117,1344,139,1392,149.3L1440,160L1440,320L1392,320C1344,320,1248,320,1152,320C1056,320,960,320,864,320C768,320,672,320,576,320C480,320,384,320,288,320C192,320,96,320,48,320L0,320Z"></path>
  <path fill="#0099ff" fill-opacity="0.5" d="M0,224L48,208C96,192,192,160,288,165.3C384,171,480,213,576,218.7C672,224,768,192,864,170.7C960,149,1056,139,1152,144C1248,149,1344,171,1392,181.3L1440,192L1440,320L1392,320C1344,320,1248,320,1152,320C1056,320,960,320,864,320C768,320,672,320,576,320C480,320,384,320,288,320C192,320,96,320,48,320L0,320Z"></path>
  <path fill="#0099ff" fill-opacity="0.3" d="M0,256L48,240C96,224,192,192,288,197.3C384,203,480,245,576,250.7C672,256,768,224,864,202.7C960,181,1056,171,1152,176C1248,181,1344,203,1392,213.3L1440,224L1440,320L1392,320C1344,320,1248,320,1152,320C1056,320,960,320,864,320C768,320,672,320,576,320C480,320,384,320,288,320C192,320,96,320,48,320L0,320Z"></path>
</svg> 